<?xml version="1.0" encoding="UTF-8"?>
<svg width="32" height="32" viewBox="0 0 32 32" fill="none" xmlns="http://www.w3.org/2000/svg">
  <circle cx="16" cy="16" r="16" fill="white"/>
  <path d="M23.5 12.5C23.5 14.5 21.5 16 19.5 16C17.5 16 15.5 14.5 15.5 12.5C15.5 10.5 17.5 9 19.5 9C21.5 9 23.5 10.5 23.5 12.5Z" fill="#FF4B2B"/>
  <path d="M8 11L10 9L16 15L14 17L8 11Z" fill="#FF4B2B"/>
  <path d="M8 23H24V21C24 18.5 21.5 16 19 16H13C10.5 16 8 18.5 8 21V23Z" fill="#FF4B2B"/>
  <path d="M10.5 12.5C10.5 13.3284 9.82843 14 9 14C8.17157 14 7.5 13.3284 7.5 12.5C7.5 11.6716 8.17157 11 9 11C9.82843 11 10.5 11.6716 10.5 12.5Z" fill="#FF4B2B"/>
</svg> 